<?xml version="1.0" encoding="UTF-8"?>
<svg id="Layer_1" data-name="Layer 1" xmlns="http://www.w3.org/2000/svg" xmlns:xlink="http://www.w3.org/1999/xlink" viewBox="0 0 411.72 475.41">
  <defs>
    <style>
      .cls-1 {
        filter: url(#drop-shadow-1);
      }

      .cls-2 {
        fill: #fff;
      }

      .cls-3 {
        fill: #d0982c;
      }
    </style>
    <filter id="drop-shadow-1" x="57.66" y="185.59" width="296.41" height="104.22" filterUnits="userSpaceOnUse">
      <feOffset dx="7" dy="7"/>
      <feGaussianBlur result="blur" stdDeviation="5"/>
      <feFlood flood-color="#231f20" flood-opacity=".15"/>
      <feComposite in2="blur" operator="in"/>
      <feComposite in="SourceGraphic"/>
    </filter>
  </defs>
  <g>
    <polygon class="cls-3" points="205.86 23.09 391.72 130.4 391.81 345.07 205.86 452.32 20 345.01 20 130.4 205.86 23.09"/>
    <path class="cls-2" d="M205.86,475.41L0,356.56V118.85L205.86,0l205.86,118.85v237.71l-205.86,118.85ZM20,345.01l185.86,107.31,185.86-107.31v-214.61L205.86,23.09,20,130.4v214.61Z"/>
  </g>
  <g class="cls-1">
    <g>
      <path class="cls-2" d="M297.06,286.66l-7.3-23.96h-36.7l-7.3,23.96h-23l35.53-101.07h26.09l35.66,101.07h-23ZM284.66,244.8c-6.75-21.71-10.54-33.99-11.39-36.83-.85-2.85-1.46-5.09-1.83-6.75-1.51,5.88-5.85,20.4-13.01,43.58h26.23Z"/>
      <path class="cls-2" d="M332.72,286.66v-100.65h21.34v100.65h-21.34Z"/>
    </g>
    <path class="cls-2" d="M99.24,250.99h-21.36v38.83h-20.22v-99.02h48.57c6.94.13,12.28.99,16.02,2.55,3.74,1.57,6.91,3.87,9.51,6.92,2.15,2.51,3.85,5.28,5.11,8.33,1.25,3.05,1.88,6.52,1.88,10.41,0,4.7-1.19,9.33-3.56,13.87-2.37,4.55-6.29,7.76-11.76,9.64,4.57,1.84,7.8,4.45,9.71,7.83,1.9,3.38,2.86,8.54,2.86,15.48v6.65c0,4.52.18,7.59.54,9.2.54,2.55,1.79,4.43,3.76,5.64v2.49h-22.77c-.63-2.19-1.07-3.96-1.34-5.31-.54-2.78-.83-5.62-.87-8.53l-.13-9.2c-.09-6.32-1.24-10.52-3.46-12.63-2.22-2.11-6.37-3.16-12.46-3.16h0ZM111.8,232.98c4.12-1.88,6.18-5.6,6.18-11.15,0-6-1.99-10.03-5.98-12.09-2.24-1.16-5.6-1.75-10.08-1.75h-24.05v26.6h23.45c4.66,0,8.15-.54,10.48-1.61h0Z"/>
    <path class="cls-2" d="M194.07,228.02h23.08v16.42h-23.08v28.84h-16.73v-28.84h-23.23v-16.42h23.23v-29.21h16.73v29.21Z"/>
  </g>
</svg>